#!OML:ASF H:\Terrain\Patient Classification 1\Terrain2\Thursday\justin.ASF
:FULLY-SPECIFIED
:DEGREES
1415
root -1.77 19.1848 17.3015 -173.57 5.59653 -174.218
lowerback 9.20262 2.74796 4.61184
upperback 1.98261 4.42859 2.33346
thorax -2.93376 2.27791 -0.676674
lowerneck -13.9416 0.584663 -8.64231
upperneck 35.3938 -2.0154 5.23174
head 14.6406 -2.46098 3.07335
rclavicle 3.0911e-014 6.36111e-015
rhumerus -27.5346 -9.16302 -82.7429
rradius 25.795
rwrist -6.90233
rhand -20.7406 13.23
rfingers 7.12502
rthumb 5.62478 -16.6754
lclavicle 3.0911e-014 6.36111e-015
lhumerus -32.1056 4.0812 86.6142
lradius 30.7224
lwrist 0.975177
lhand -13.1553 22.0181
lfingers 7.12502
lthumb 12.9435 51.5967
rfemur 6.04143 0.97777 23.8672
rtibia 19.3857
rfoot 15.4461 7.24525
rtoes 2.05045
lfemur -47.2638 4.42173 -15.8778
ltibia 58.4885
lfoot -13.9423 -11.2823
ltoes -3.13621
1416
root -1.78576 19.274 17.2242 -173.549 6.03188 -174.265
lowerback 9.29501 2.77485 4.30718
upperback 1.9632 4.44301 2.39941
thorax -3.03268 2.28466 -0.448403
lowerneck -13.7622 0.731672 -8.61567
upperneck 35.292 -1.7356 5.01995
head 14.523 -2.36718 3.02138
rclavicle 5.19822e-014 1.11319e-014
rhumerus -27.5577 -8.34407 -82.8995
rradius 26.3088
rwrist -7.36232
rhand -20.5071 13.385
rfingers 7.12502
rthumb 5.85021 -16.5142
lclavicle 5.19822e-014 1.11319e-014
lhumerus -32.0623 3.84507 86.7128
lradius 30.6853
lwrist 1.0533
lhand -13.2518 20.6973
lfingers 7.12502
lthumb 12.8504 50.2817
rfemur 4.99307 1.12528 23.6798
rtibia 21.407
rfoot 14.4726 6.04929
rtoes -0.62834
lfemur -46.2174 4.66739 -15.9721
ltibia 57.3011
lfoot -13.6684 -11.2354
ltoes -3.14745
1417
root -1.80309 19.3654 17.1471 -173.653 6.28431 -174.169
lowerback 9.49758 2.71344 4.1169
upperback 1.98903 4.37302 2.57586
thorax -3.14903 2.25491 -0.16507
lowerneck -13.8957 0.798285 -8.6455
upperneck 35.4934 -1.54557 4.69019
head 14.6297 -2.35326 2.92007
rclavicle 4.77083e-015 -2.78299e-014
rhumerus -27.4902 -7.48384 -82.9439
rradius 26.8808
rwrist -7.63928
rhand -20.2777 13.0847
rfingers 7.12502
rthumb 6.0717 -16.8083
lclavicle 4.77083e-015 -2.78299e-014
lhumerus -32.0334 3.69997 86.8594
lradius 30.7808
lwrist 1.10111
lhand -13.0699 20.3847
lfingers 7.12502
lthumb 13.0259 49.958
rfemur 4.11379 1.2004 23.6872
rtibia 23.4557
rfoot 13.1324 4.45804
rtoes -3.02833
lfemur -44.9993 4.77166 -15.9085
ltibia 56.055
lfoot -13.3876 -11.1145
ltoes -2.09632
1418
root -1.81763 19.4609 17.0689 -173.76 6.40512 -174.284
lowerback 9.60037 2.62398 3.89531
upperback 2.0699 4.23672 2.55996
thorax -3.14039 2.19115 -0.0464573
lowerneck -14.0363 0.786756 -8.63281
upperneck 35.5153 -1.49738 4.53751
head 14.6684 -2.35067 2.86223
rclavicle -1.82882e-014 -9.14409e-015
rhumerus -27.3997 -6.59059 -83.2397
rradius 27.6492
rwrist -8.05913
rhand -20.1338 12.3181
rfingers 7.12502
rthumb 6.2106 -17.5709
lclavicle -1.82882e-014 -9.14409e-015
lhumerus -31.9622 3.39283 86.8164
lradius 31.0501
lwrist 1.12266
lhand -12.8207 21.3232
lfingers 7.12502
lthumb 13.2661 50.881
rfemur 3.28353 1.21003 23.5279
rtibia 25.4082
rfoot 11.6567 2.87797
rtoes -3.09308
lfemur -43.7471 4.67467 -16.0476
ltibia 54.7396
lfoot -13.2968 -10.888
ltoes -2.14827
1419
root -1.82984 19.5589 16.9905 -173.849 6.61654 -174.643
lowerback 9.62264 2.56536 3.51949
upperback 2.17551 4.10393 2.38883
thorax -3.05915 2.12691 0.00309554
lowerneck -13.8917 0.802111 -8.7148
upperneck 35.1712 -1.43602 4.66271
head 14.4698 -2.29208 2.93563
rclavicle -1.71949e-014 -2.10712e-014
rhumerus -27.1715 -6.05083 -83.6103
rradius 28.2317
rwrist -8.23211
rhand -19.9342 12.1883
rfingers 7.12502
rthumb 6.4033 -17.6949
lclavicle -1.71949e-014 -2.10712e-014
lhumerus -31.8981 3.13141 86.5933
lradius 31.3553
lwrist 0.90786
lhand -12.9479 21.8009
lfingers 7.12502
lthumb 13.1434 51.3666
rfemur 2.3887 1.07101 23.0543
rtibia 27.3349
rfoot 10.0607 1.73755
rtoes -2.89574
lfemur -42.5015 4.58004 -16.4318
ltibia 53.3718
lfoot -12.9381 -10.8375
ltoes -0.805201
1420
root -1.84283 19.6537 16.9173 -173.911 6.77854 -174.718
lowerback 9.71042 2.47445 3.36462
upperback 2.26831 3.97087 2.3506
thorax -3.02183 2.06478 0.0632466
lowerneck -13.6797 0.8358 -8.89893
upperneck 34.732 -1.34412 4.8983
head 14.2122 -2.21269 3.07526
rclavicle -1.05356e-014 -3.57812e-015
rhumerus -26.7866 -5.7086 -83.8249
rradius 28.5771
rwrist -8.23738
rhand -19.863 12.9746
rfingers 7.12502
rthumb 6.47208 -16.9065
lclavicle -1.05356e-014 -3.57812e-015
lhumerus -31.747 2.61534 86.5946
lradius 31.5408
lwrist 1.15972
lhand -13.7554 21.5245
lfingers 7.12502
lthumb 12.365 51.1389
rfemur 1.45068 0.882815 22.8969
rtibia 29.2926
rfoot 8.36129 0.888404
rtoes -4.50336
lfemur -41.334 4.40687 -16.4042
ltibia 51.9874
lfoot -12.3025 -11.1271
ltoes 4.75909
1421
root -1.85247 19.7433 16.8481 -173.968 6.81578 -174.664
lowerback 9.78303 2.29574 3.29069
upperback 2.35272 3.73466 2.37054
thorax -2.98514 1.95243 0.151335
lowerneck -13.6331 0.958935 -8.92325
upperneck 34.4936 -1.13695 5.00089
head 14.073 -2.09377 3.15105
rclavicle -3.08116e-015 -2.78299e-014
rhumerus -26.4876 -5.11332 -84.1026
rradius 29.0815
rwrist -8.43681
rhand -19.8145 13.2463
rfingers 7.12502
rthumb 6.51891 -16.6334
lclavicle -3.08116e-015 -2.78299e-014
lhumerus -31.4361 2.79949 86.2364
lradius 31.4067
lwrist 0.194839
lhand -12.6863 21.6212
lfingers 7.12502
lthumb 13.3956 51.1705
rfemur 0.528166 0.709156 22.9578
rtibia 31.2598
rfoot 6.64487 0.158891
rtoes -6.21351
lfemur -40.213 4.2427 -16.2648
ltibia 50.6017
lfoot -11.7804 -11.2736
ltoes 8.41541
